# xmcd
#
# Track frame offsets:
#	183
#	9463
#	20890
#	34808
#	46665
#	59503
#	71633
#	84208
#	96213
#	112843
#	126888
#	137378
#	151010
#	161643
#	172973
#	185673
#	194963
#	204320
#	214255
#
# Disc length: 3014 seconds
#
# Revision: 2
# Processed by: cddbd v1.5.2PL0 Copyright (c) Steve Scherf et al.
# Submitted via: EasyCDDAExtractor 16.0.6.1
#
DISCID=030bc413
DTITLE=The Big Banjo Band - C-011 Banjo Party
DYEAR=1995
DGENRE=Country
TTITLE0=California, Here I Come
TTITLE1=Rock A Bye Your Baby Whit A Dixie Melody
TTITLE2=Sonny Boy
TTITLE3=Toot Toot Tootsie
TTITLE4=Waiting For The Robert Lee
TTITLE5=My Mammy
TTITLE6=Carolina In The Morning
TTITLE7=Raindroops Keep Falling On My Head
TTITLE8=Hava Nagilah
TTITLE9=Swanee
TTITLE10=Those Were The Days
TTITLE11=Hello All
TTITLE12=Alabamy Bound
TTITLE13=Too Many Rings Around Rosie
TTITLE14=Happy Weekend
TTITLE15=When The Red Red Robin Comes Bob Bob Bobbin' Along
TTITLE16=Tea For Two
TTITLE17=Is It True What They Say About Dixie?
TTITLE18=April Showers
EXTD=
EXTT0=
EXTT1=
EXTT2=
EXTT3=
EXTT4=
EXTT5=
EXTT6=
EXTT7=
EXTT8=
EXTT9=
EXTT10=
EXTT11=
EXTT12=
EXTT13=
EXTT14=
EXTT15=
EXTT16=
EXTT17=
EXTT18=
PLAYORDER=
